<svg id="Layer_1" data-name="Layer 1" xmlns="http://www.w3.org/2000/svg" viewBox="0 0 437.09 164.1"><defs><style>.cls-1,.cls-2{isolation:isolate;}.cls-2{font-size:150px;font-family:FuturaStd-Heavy, Futura Std;font-weight:800;}</style></defs><g id="Layer_1-2" data-name="Layer 1"><g class="cls-1"><text class="cls-2" transform="translate(0 124.5)"><tspan xml:space="preserve">M   SA</tspan></text></g></g><g id="Layer_2" data-name="Layer 2"><path d="M148.17,45.49c1.49-2.2,2.56-4.55,4.26-6.28,3-3,5.59-6.52,9.51-8.57a5.08,5.08,0,0,0,1.93-2.15c1.73-3.21,4.74-5,7.58-7,3.58-2.45,7.75-3.73,11.89-4.88a23.24,23.24,0,0,1,5.51-.57c2.73-.09,5.47,0,8.2,0a64.67,64.67,0,0,1,14.72,2c2.93.68,5.84,1.16,8.51,2.6a59.18,59.18,0,0,1,8.59,5.69A42.53,42.53,0,0,1,242.6,47.56a91.78,91.78,0,0,1,2.94,12.68,37.16,37.16,0,0,1,.32,9,34.66,34.66,0,0,1-2.15,8.86A43.5,43.5,0,0,1,240,85.83c-1.08,1.77-1.58,3.81-.18,5.9a5.55,5.55,0,0,1,.78,4.18,12.24,12.24,0,0,0,.6,6.2c.89,2.25,0,4-1,5.52a15.87,15.87,0,0,1-4.17,4.2,21.86,21.86,0,0,1-6.39,3c-.51.17-1.17-.15-1.77-.24.44-.27.87-.55,1.31-.81a50.73,50.73,0,0,0,5.71-3.31,24,24,0,0,0,4.16-4.32c1.28-1.64,1-3.57.53-5.48-.2-.75-.11-1.58-.25-2.35a2,2,0,0,0-.58-1.09c-.09-.09-.67.2-.92.43-3.28,3-7.47,3.93-11.5,5.24-.16,0-.43-.19-.65-.3.15-.25.26-.66.48-.74a38.52,38.52,0,0,0,4.76-1.7c2.54-1.39,4.95-3,7.36-4.63.91-.61.58-1.51.28-2.39-.51-1.51-.93-3.06-1.36-4.6a.88.88,0,0,1,.15-.72c2.5-2.76,3-6.42,4.06-9.73a40.35,40.35,0,0,0,1.87-12.86,55.33,55.33,0,0,0-1.82-11.79,53.7,53.7,0,0,0-5.4-14.6,34.65,34.65,0,0,0-9-10.43,77.55,77.55,0,0,0-7.42-5.18,27.18,27.18,0,0,0-7.85-2.85,102.44,102.44,0,0,0-11.12-2.15,55.84,55.84,0,0,0-11.34-.49,43,43,0,0,0-12,2.58,39.61,39.61,0,0,0-9.06,5.15A20.76,20.76,0,0,0,166.22,27a3.92,3.92,0,0,0-.61,1.29,3.5,3.5,0,0,0,1.11-.24A12.13,12.13,0,0,1,172,26.17c.68-.06,1.34-.32,2-.38,2.38-.21,4.76.19,7.18-.45,1.42-.38,3.13.14,4.67.46a37.54,37.54,0,0,1,10.82,3.54c4.82,2.71,9.94,4.87,14.25,8.52s8,8.17,11.59,12.58c2.16,2.62,3.62,5.59,5.35,8.42a3.77,3.77,0,0,0,2.69,1.67c.51.13,1.08,0,1.58.17.26.08.43.48.64.73a2.78,2.78,0,0,1-.74.19,22.68,22.68,0,0,0-5,.49,10,10,0,0,0-7.34,7.47c-.31,1.49-.84,2.94-1.06,4.44a7.69,7.69,0,0,0,3.87,7.69,52.05,52.05,0,0,0,5.38,2.16c.29.11.74-.23,1.12-.36-.28-.23-.54-.49-.83-.7-2.55-1.75-4.16-4.06-4.07-7.23a26.37,26.37,0,0,1,.57-5.74,9.4,9.4,0,0,1,6.51-7.1c.29-.09.67.1,1,.16-.2.26-.34.65-.6.75a8.33,8.33,0,0,0-5.5,6.61c-.89,4.25-1,8.35,2.73,11.63,1.1,1,2.22,1.34,3.36.69,2-1.11,4.1-1.89,5.42-4.1a10.66,10.66,0,0,0,1.72-7.14c-.37-2.55-.71-5.25-2.66-7.3-.5-.51-1-1-1.54-1.5a4.87,4.87,0,0,1-.52-.76,2.6,2.6,0,0,1,1-.13c2.32.69,3.52,2.7,4.2,4.6,1.7,4.74,1.92,9.52-.92,14.11-2.12,3.44-5.36,5-9.09,5.66a10.18,10.18,0,0,1-7.35-1.3c-.9-.58-1.39-.15-2.08.38-3.79,2.89-7.55,5.85-11.48,8.55a44.19,44.19,0,0,1-18.58,6.63c-7.49,1-15,.33-22.48.39-3.33,0-6.61-1.09-9.92-1.68a16.93,16.93,0,0,1-4.71-1.45c-2.13-1-2.89-3.08-4.09-4.82-.17-.24-.39-.44-.58-.67-.17.25-.36.48-.51.74-1.58,2.77-1.45,3,.43,5.45,1.36,1.81,3,3.47,3.51,5.9.17.82,1.56,1.68,2.56,2a30.1,30.1,0,0,0,6.09,1.12c3.74.3,7.5.45,11.26.54a26.71,26.71,0,0,0,3.33-.48c.22,0,.48.32.72.5-.14.19-.25.5-.42.54a16.14,16.14,0,0,1-3,.54c-3.92.06-7.85.16-11.76,0a21.23,21.23,0,0,1-7.9-2,5.39,5.39,0,0,0-1.64-.64c-.73-.09-1.4-.31-1.58,1.07-.33,2.43-1,4.8.11,7.16a4.25,4.25,0,0,0,1.47,2,26.06,26.06,0,0,0,8.74,3.28,85.72,85.72,0,0,0,10.48,1.06c8,.16,16.05-.11,24.07.13,3.34.1,6.43-.9,9.66-1.23,2.26-.23,4.45-1.19,6.72-1.53,5.55-.82,10.5-3.19,15.4-5.7.3-.15.63-.25.93-.39a5,5,0,0,0,.58-.35c.06.25.23.55.14.74A4.4,4.4,0,0,1,226,115a41,41,0,0,1-11.66,4.2c-3.55.77-7.19,1.13-10.79,1.68a2.78,2.78,0,0,0-.74.19,17.92,17.92,0,0,1-9,1.45c-1.72-.08-3.46-.08-5.19,0-2.66.12-5.32.51-8,.49a106.75,106.75,0,0,1-12.89-.59c-3.91-.53-8-.25-11.68-2.09-1.59-.79-3.18-1.57-4.74-2.41-.5-.26-.92-.67-1.15.21-.09.33-.12.68-.18,1-.31-.26-.77-.47-.89-.8-1.24-3.3-2.43-6.56-1.22-10.25.46-1.42.48-3,1.12-4.44s-.49-2.79-1.34-4c-.4-.57-.93-1.06-1.32-1.64-1.67-2.45-.36-4.57,1-6.55a1.6,1.6,0,0,0,.18-2,59.52,59.52,0,0,1-4.44-15,60.13,60.13,0,0,1-1-6.62,13.58,13.58,0,0,1,.41-5.23,41.94,41.94,0,0,0,1.18-6.85,17,17,0,0,1,3.27-8.17c.46-.59.74-1.31,1.24-2.11m68.83,29a30.73,30.73,0,0,1,.59-4.38,14.55,14.55,0,0,1,3.64-6.92c1.25-1.22,2.84-1.51,4.37-2,1.18-.38,1.45-.76.75-2a55.54,55.54,0,0,0-6.9-9.9c-1.49-1.7-3.2-3.22-4.81-4.82-1.85-1.84-3.45-4.11-5.62-5.45a99,99,0,0,0-17.79-9.06c-4.41-1.62-8.94-2.87-13.75-2.44a8,8,0,0,1-3,0c-1.64-.5-2.83.28-4.09,1a17.8,17.8,0,0,1-2,1.22c-4.15,1.61-7.36,4.54-10.56,7.43a52.4,52.4,0,0,0-8.5,10.61,25.76,25.76,0,0,0-4.65,15.19c.07,2,.52,4.07-.48,6a2.19,2.19,0,0,0,0,1.34c.89,3.7,1.6,7.46,2.78,11.07,1.42,4.39,3,8.76,6,12.47,1.08,1.37,1.92,3,3.82,3.48,2.91.69,5.83,1.82,8.76,1.83,6.75,0,13.51.49,20.28-.33A59.2,59.2,0,0,0,197,96.49C202,94.86,207,93,211.43,89.93c2.58-1.8,4.82-4.08,7.45-5.79,1.17-.75,1-1.1.43-1.93-1.53-2.15-2.72-4.42-2.32-7.73m-66.74,31,.32.22c0-.26,0-.43-.34-.32Z" transform="translate(0 3.3)"/><path d="M155.93,54.15c-2-1.18-2.84-2.72-2-4.68,1.71-4,3.55-8,7.57-10.34,1.72-1,3.69-.93,5.62-.86.14,0,.39.16.41.27a16.34,16.34,0,0,1,.46,4.35,6.1,6.1,0,0,1-2.2,3.41c-2.13,1.93-4.15,4-6.12,6.08a4.7,4.7,0,0,0-.86,2.06c-.34,1.36-.71,1.57-1.79.79a12.47,12.47,0,0,1-1.1-1.08m3.14-11c-1.09,1.81-2.24,3.59-3.25,5.45a6.14,6.14,0,0,0-.79,2.64,2,2,0,0,0,.93,1.6,1.34,1.34,0,0,0,1.82-.56.67.67,0,0,0,.06-.12A25,25,0,0,1,162.4,47c1.1-1.07,2.54-1.78,3.75-2.74s1.16-1.9.3-3.48a1.92,1.92,0,0,0-2.56-.75,9.27,9.27,0,0,0-4.82,3.12Z" transform="translate(0 3.3)"/><path d="M202,80.2c.82-.86,1.47-2.14,2.19-2.18a3.78,3.78,0,0,1,3.4,1.49c.8,1.15.28,4.67-1,5.28-1.81.89-3.61,2-5.79,1.8-1.06-.09-1.55-.66-1.11-1.73a35.28,35.28,0,0,1,2-3.79c.11-.22.13-.49.33-.87m3.69,3.4a2.31,2.31,0,0,0,1-2.76,3.75,3.75,0,0,0-1.64-1.79c-.28-.17-1.25.3-1.49.72a41.75,41.75,0,0,0-1.76,3.85l-.48,1.11,1.31-.31a18.12,18.12,0,0,0,3-.82Z" transform="translate(0 3.3)"/></g></svg>